<svg width="1000" height="1000" viewBox="0 0 1000 1000" xmlns="http://www.w3.org/2000/svg"><defs/><path fill="#542827" transform="matrix(0.4864513303054835 0 0 0.4864513303054835 38.96223357158679 -33.871765308517844)" d="M 342.99216388479 1056.76817742135 C 339.49216388479 1056.76817742135 336.59216388479 1059.56817742135 336.49216388479 1063.06817742135 C 336.09216388479 1077.16817742135 335.59216388479 1112.26817742135 338.79216388479 1139.26817742135 C 343.29216388479 1178.26817742135 349.19216388479 1203.56817742135 357.49216388479 1221.96817742135 C 358.89216388479 1225.16817742135 362.99216388479 1227.66817742135 366.49216388479 1227.66817742135 L 450.19216388479 1227.66817742135 C 453.69216388479 1227.66817742135 457.79216388479 1225.16817742135 459.19216388479 1221.96817742135 C 462.39216388479 1214.76817742135 465.29216388479 1206.46817742135 467.89216388479 1196.66817742135 C 476.39216388479 1188.76817742135 493.99216388479 1172.16817742135 506.39216388479 1157.76817742135 C 521.49216388479 1140.26817742135 537.39216388479 1110.46817742135 519.39216388479 1092.86817742135 C 506.39216388479 1080.16817742135 489.09216388479 1082.26817742135 480.49216388479 1084.46817742135 C 480.49216388479 1075.56817742135 480.39216388479 1068.06817742135 480.19216388479 1063.16817742135 C 480.09216388479 1059.66817742135 477.19216388479 1056.86817742135 473.69216388479 1056.86817742135 L 342.99216388479 1056.86817742135 Z M 500.39216388479 1094.46817742135 C 521.79216388479 1095.56817742135 514.19216388479 1120.86817742135 510.49216388479 1127.96817742135 C 507.19216388479 1134.16817742135 493.69216388479 1155.56817742135 474.29216388479 1164.86817742135 C 475.49216388479 1157.06817742135 476.69216388479 1148.56817742135 477.79216388479 1139.26817742135 C 478.89216388479 1130.06817742135 479.49216388479 1119.96817742135 479.89216388479 1110.06817742135 C 482.79216388479 1102.26817742135 488.69216388479 1093.86817742135 500.39216388479 1094.46817742135 Z"/><path fill="#542827" transform="matrix(0.4864513303054835 0 0 0.4864513303054835 38.96223357158679 -33.871765308517844)" d="M 287.99216388479 1006.96817742135 C 289.79216388479 1010.76817742135 292.09216388479 1014.36817742135 294.99216388479 1017.56817742135 C 295.69216388479 1018.36817742135 296.49216388479 1019.16817742135 297.29216388479 1019.86817742135 L 297.89216388479 1020.46817742135 L 298.49216388479 1020.96817742135 C 298.89216388479 1021.26817742135 299.29216388479 1021.66817742135 299.69216388479 1021.96817742135 C 301.29216388479 1023.26817742135 302.89216388479 1024.46817742135 304.69216388479 1025.56817742135 C 308.19216388479 1027.76817742135 311.99216388479 1029.66817742135 316.09216388479 1030.76817742135 C 320.19216388479 1031.96817742135 324.39216388479 1032.46817742135 328.49216388479 1032.46817742135 C 332.59216388479 1032.46817742135 336.59216388479 1031.86817742135 340.49216388479 1030.96817742135 C 344.29216388479 1030.06817742135 347.99216388479 1028.86817742135 351.59216388479 1027.56817742135 C 358.69216388479 1024.86817742135 365.39216388479 1021.66817742135 371.89216388479 1018.66817742135 C 375.19216388479 1017.16817742135 378.39216388479 1015.66817742135 381.59216388479 1014.36817742135 C 383.19216388479 1013.66817742135 384.79216388479 1013.06817742135 386.39216388479 1012.56817742135 C 387.19216388479 1012.26817742135 387.99216388479 1012.06817742135 388.79216388479 1011.76817742135 C 389.59216388479 1011.56817742135 390.39216388479 1011.26817742135 391.19216388479 1011.06817742135 C 394.49216388479 1010.16817742135 397.79216388479 1009.56817742135 400.99216388479 1009.26817742135 C 404.19216388479 1008.96817742135 407.39216388479 1009.16817742135 410.29216388479 1009.86817742135 C 413.19216388479 1010.56817742135 415.79216388479 1011.86817742135 417.89216388479 1013.76817742135 C 418.89216388479 1014.76817742135 419.79216388479 1015.86817742135 420.49216388479 1017.06817742135 C 420.89216388479 1017.66817742135 421.19216388479 1018.36817742135 421.49216388479 1019.06817742135 C 421.59216388479 1019.36817742135 421.79216388479 1019.76817742135 421.89216388479 1020.06817742135 C 421.99216388479 1020.36817742135 422.09216388479 1020.76817742135 422.19216388479 1021.06817742135 C 422.99216388479 1023.76817742135 422.79216388479 1026.76817742135 421.79216388479 1029.66817742135 C 420.79216388479 1032.66817742135 419.09216388479 1035.56817742135 416.89216388479 1038.16817742135 C 414.69216388479 1040.76817742135 412.19216388479 1043.16817742135 409.29216388479 1045.06817742135 C 406.39216388479 1046.96817742135 403.19216388479 1048.56817742135 399.59216388479 1049.16817742135 C 399.49216388479 1049.16817742135 399.39216388479 1049.26817742135 399.39216388479 1049.36817742135 C 399.39216388479 1049.46817742135 399.49216388479 1049.56817742135 399.59216388479 1049.56817742135 C 401.39216388479 1049.86817742135 403.39216388479 1049.66817742135 405.19216388479 1049.36817742135 C 407.09216388479 1049.06817742135 408.89216388479 1048.46817742135 410.59216388479 1047.66817742135 C 414.09216388479 1046.16817742135 417.39216388479 1044.16817742135 420.29216388479 1041.56817742135 C 423.19216388479 1038.96817742135 425.79216388479 1035.86817742135 427.59216388479 1032.06817742135 C 428.49216388479 1030.16817742135 429.19216388479 1028.16817742135 429.49216388479 1025.96817742135 C 429.79216388479 1023.86817742135 429.79216388479 1021.56817742135 429.39216388479 1019.36817742135 C 429.29216388479 1018.76817742135 429.19216388479 1018.26817742135 428.99216388479 1017.76817742135 C 428.89216388479 1017.26817742135 428.69216388479 1016.76817742135 428.49216388479 1016.26817742135 C 428.19216388479 1015.26817742135 427.79216388479 1014.26817742135 427.29216388479 1013.26817742135 C 426.29216388479 1011.26817742135 425.09216388479 1009.46817742135 423.59216388479 1007.86817742135 C 420.59216388479 1004.56817742135 416.59216388479 1002.26817742135 412.49216388479 1001.06817742135 C 408.39216388479 999.86817742135 404.29216388479 999.46817742135 400.19216388479 999.66817742135 C 396.19216388479 999.86817742135 392.29216388479 1000.46817742135 388.49216388479 1001.36817742135 C 387.59216388479 1001.56817742135 386.59216388479 1001.86817742135 385.69216388479 1002.06817742135 C 384.79216388479 1002.36817742135 383.79216388479 1002.56817742135 382.89216388479 1002.86817742135 C 381.09216388479 1003.46817742135 379.29216388479 1004.06817742135 377.49216388479 1004.76817742135 C 373.99216388479 1006.16817742135 370.59216388479 1007.56817742135 367.19216388479 1009.06817742135 C 360.49216388479 1012.06817742135 353.99216388479 1015.06817742135 347.49216388479 1017.36817742135 C 344.19216388479 1018.46817742135 340.99216388479 1019.46817742135 337.69216388479 1020.06817742135 C 334.49216388479 1020.66817742135 331.19216388479 1021.06817742135 328.09216388479 1020.96817742135 C 324.99216388479 1020.86817742135 321.89216388479 1020.36817742135 319.09216388479 1019.36817742135 C 316.19216388479 1018.36817742135 313.49216388479 1016.96817742135 310.89216388479 1015.26817742135 C 309.59216388479 1014.36817742135 308.39216388479 1013.36817742135 307.19216388479 1012.36817742135 C 306.89216388479 1012.06817742135 306.59216388479 1011.86817742135 306.29216388479 1011.56817742135 L 305.89216388479 1011.16817742135 L 305.49216388479 1010.76817742135 C 304.99216388479 1010.26817742135 304.49216388479 1009.66817742135 303.99216388479 1009.16817742135 C 302.09216388479 1006.86817742135 300.49216388479 1004.26817742135 299.39216388479 1001.46817742135 C 296.99216388479 995.86817742135 296.09216388479 989.46817742135 296.49216388479 983.26817742135 C 296.89216388479 977.06817742135 298.79216388479 970.96817742135 301.99216388479 966.16817742135 C 303.59216388479 963.76817742135 305.49216388479 961.76817742135 307.69216388479 960.16817742135 C 309.89216388479 958.56817742135 312.29216388479 957.46817742135 314.79216388479 956.86817742135 C 317.39216388479 956.26817742135 320.19216388479 956.16817742135 322.99216388479 956.46817742135 C 325.89216388479 956.76817742135 328.49216388479 957.46817742135 330.69216388479 958.56817742135 C 332.79216388479 959.66817742135 334.49216388479 961.06817742135 335.59216388479 962.86817742135 C 336.69216388479 964.66817742135 337.39216388479 966.76817742135 337.59216388479 969.16817742135 C 337.79216388479 971.46817742135 337.39216388479 973.96817742135 336.49216388479 976.26817742135 C 335.69216388479 978.46817742135 334.29216388479 980.46817742135 332.79216388479 981.76817742135 C 332.09216388479 982.46817742135 331.29216388479 982.96817742135 330.49216388479 983.26817742135 C 329.69216388479 983.56817742135 328.89216388479 983.86817742135 328.09216388479 983.86817742135 C 326.39216388479 984.06817742135 324.49216388479 983.66817742135 322.29216388479 982.66817742135 C 322.19216388479 982.56817742135 321.99216388479 982.56817742135 321.89216388479 982.46817742135 C 317.09216388479 980.56817742135 311.69216388479 982.86817742135 309.69216388479 987.66817742135 C 307.79216388479 992.46817742135 310.09216388479 997.86817742135 314.89216388479 999.86817742135 L 314.99216388479 999.96817742135 C 317.29216388479 1000.86817742135 319.69216388479 1001.56817742135 322.29216388479 1001.96817742135 C 324.89216388479 1002.36817742135 327.69216388479 1002.36817742135 330.39216388479 1001.96817742135 C 333.19216388479 1001.56817742135 335.89216388479 1000.66817742135 338.29216388479 999.36817742135 C 340.79216388479 998.06817742135 342.99216388479 996.46817742135 344.79216388479 994.56817742135 C 348.59216388479 990.86817742135 351.09216388479 986.46817742135 352.59216388479 981.76817742135 C 354.09216388479 977.16817742135 354.59216388479 972.26817742135 354.09216388479 967.36817742135 C 353.79216388479 964.96817742135 353.29216388479 962.46817742135 352.39216388479 960.06817742135 C 351.49216388479 957.66817742135 350.29216388479 955.36817742135 348.79216388479 953.36817742135 C 347.29216388479 951.26817742135 345.49216388479 949.36817742135 343.49216388479 947.76817742135 C 341.49216388479 946.16817742135 339.39216388479 944.86817742135 337.19216388479 943.86817742135 C 332.79216388479 941.86817742135 328.19216388479 940.96817742135 323.89216388479 940.66817742135 C 321.69216388479 940.56817742135 319.49216388479 940.56817742135 317.19216388479 940.76817742135 C 314.99216388479 940.96817742135 312.69216388479 941.36817742135 310.49216388479 941.96817742135 C 306.09216388479 943.16817742135 301.79216388479 945.36817742135 298.19216388479 948.16817742135 C 294.59216388479 950.96817742135 291.59216388479 954.46817742135 289.39216388479 958.26817742135 C 287.09216388479 961.96817742135 285.49216388479 965.96817742135 284.39216388479 970.06817742135 C 283.29216388479 974.16817742135 282.69216388479 978.26817742135 282.59216388479 982.36817742135 C 282.49216388479 986.46817742135 282.79216388479 990.66817742135 283.59216388479 994.66817742135 C 284.99216388479 999.16817742135 286.19216388479 1003.16817742135 287.99216388479 1006.96817742135 Z"/><path fill="#542827" transform="matrix(0.4864513303054835 0 0 0.4864513303054835 38.96223357158679 -33.871765308517844)" d="M 360.69216388479 946.56817742135 C 362.49216388479 951.16817742135 365.09216388479 955.46817742135 368.29216388479 959.16817742135 C 369.89216388479 961.06817742135 371.59216388479 962.76817742135 373.39216388479 964.36817742135 C 373.89216388479 964.76817742135 374.29216388479 965.16817742135 374.79216388479 965.56817742135 L 375.49216388479 966.16817742135 L 376.19216388479 966.66817742135 C 377.19216388479 967.46817742135 378.29216388479 968.16817742135 379.29216388479 968.86817742135 C 383.59216388479 971.56817742135 388.39216388479 973.26817742135 393.09216388479 974.16817742135 C 397.79216388479 975.16817742135 402.29216388479 975.46817742135 406.69216388479 975.46817742135 C 411.09216388479 975.56817742135 415.39216388479 975.36817742135 419.49216388479 975.16817742135 C 423.59216388479 974.96817742135 427.69216388479 974.86817742135 431.59216388479 974.96817742135 C 435.49216388479 975.06817742135 439.19216388479 975.46817742135 442.79216388479 976.26817742135 C 446.29216388479 977.06817742135 449.49216388479 978.36817742135 452.39216388479 980.26817742135 C 453.09216388479 980.76817742135 453.79216388479 981.26817742135 454.49216388479 981.76817742135 L 454.69216388479 981.96817742135 L 454.79216388479 981.96817742135 L 454.89216388479 982.06817742135 L 454.99216388479 982.16817742135 L 455.09216388479 982.26817742135 L 455.19216388479 982.36817742135 C 455.19216388479 982.36817742135 455.19216388479 982.36817742135 455.19216388479 982.36817742135 L 455.29216388479 982.46817742135 C 455.59216388479 982.76817742135 455.99216388479 983.16817742135 456.29216388479 983.46817742135 C 457.59216388479 984.76817742135 458.79216388479 986.16817742135 459.89216388479 987.66817742135 C 462.09216388479 990.56817742135 463.69216388479 993.76817742135 464.69216388479 997.06817742135 C 465.69216388479 1000.46817742135 465.99216388479 1004.06817742135 465.79216388479 1007.66817742135 C 465.59216388479 1009.46817742135 465.39216388479 1011.36817742135 464.89216388479 1013.16817742135 L 464.69216388479 1013.86817742135 C 464.59216388479 1014.06817742135 464.59216388479 1014.26817742135 464.49216388479 1014.56817742135 L 464.39216388479 1014.96817742135 C 464.39216388479 1015.06817742135 464.39216388479 1014.96817742135 464.39216388479 1014.96817742135 L 464.39216388479 1015.06817742135 L 464.39216388479 1015.26817742135 C 464.29216388479 1015.46817742135 464.29216388479 1015.76817742135 464.19216388479 1015.96817742135 C 463.89216388479 1016.86817742135 463.59216388479 1017.76817742135 463.29216388479 1018.66817742135 C 460.49216388479 1025.76817742135 455.79216388479 1032.16817742135 449.79216388479 1037.36817742135 C 448.29216388479 1038.66817742135 446.69216388479 1039.86817742135 445.09216388479 1041.06817742135 C 443.49216388479 1042.26817742135 441.79216388479 1043.26817742135 439.99216388479 1044.26817742135 C 436.49216388479 1046.26817742135 432.69216388479 1047.86817742135 428.69216388479 1049.36817742135 C 428.59216388479 1049.36817742135 428.59216388479 1049.46817742135 428.59216388479 1049.56817742135 C 428.59216388479 1049.66817742135 428.69216388479 1049.76817742135 428.79216388479 1049.76817742135 L 428.79216388479 1049.76817742135 C 432.99216388479 1049.46817742135 437.19216388479 1048.56817742135 441.19216388479 1047.16817742135 C 443.19216388479 1046.46817742135 445.19216388479 1045.66817742135 447.19216388479 1044.76817742135 C 449.19216388479 1043.86817742135 451.09216388479 1042.76817742135 452.89216388479 1041.56817742135 C 460.29216388479 1036.86817742135 466.49216388479 1030.06817742135 470.49216388479 1021.96817742135 C 470.99216388479 1020.96817742135 471.49216388479 1019.86817742135 471.89216388479 1018.86817742135 C 471.99216388479 1018.56817742135 472.09216388479 1018.36817742135 472.19216388479 1018.06817742135 L 472.29216388479 1017.86817742135 L 472.29216388479 1017.76817742135 L 472.39216388479 1017.56817742135 L 472.49216388479 1017.16817742135 C 472.59216388479 1016.96817742135 472.69216388479 1016.66817742135 472.79216388479 1016.36817742135 L 473.09216388479 1015.56817742135 C 473.79216388479 1013.36817742135 474.29216388479 1011.16817742135 474.69216388479 1008.86817742135 C 475.39216388479 1004.26817742135 475.39216388479 999.36817742135 474.29216388479 994.76817742135 C 473.79216388479 992.46817742135 472.99216388479 990.16817742135 471.99216388479 987.96817742135 C 470.99216388479 985.76817742135 469.89216388479 983.66817742135 468.59216388479 981.76817742135 C 467.29216388479 979.76817742135 465.89216388479 977.96817742135 464.29216388479 976.26817742135 C 463.89216388479 975.86817742135 463.49216388479 975.36817742135 463.09216388479 974.96817742135 L 462.79216388479 974.66817742135 L 462.29216388479 974.16817742135 L 461.99216388479 973.86817742135 L 461.59216388479 973.56817742135 C 460.69216388479 972.76817742135 459.69216388479 971.96817742135 458.69216388479 971.26817742135 C 454.69216388479 968.36817742135 450.19216388479 966.36817742135 445.69216388479 965.06817742135 C 441.09216388479 963.76817742135 436.59216388479 963.26817742135 432.19216388479 962.96817742135 C 423.39216388479 962.46817742135 414.99216388479 962.96817742135 407.19216388479 962.56817742135 C 403.29216388479 962.36817742135 399.49216388479 961.96817742135 396.09216388479 961.16817742135 C 392.59216388479 960.36817742135 389.49216388479 959.06817742135 386.79216388479 957.26817742135 C 386.09216388479 956.86817742135 385.49216388479 956.36817742135 384.89216388479 955.86817742135 C 384.89216388479 955.86817742135 384.89216388479 955.86817742135 384.89216388479 955.86817742135 L 384.79216388479 955.76817742135 L 384.69216388479 955.66817742135 L 384.39216388479 955.36817742135 L 383.89216388479 954.96817742135 C 383.59216388479 954.66817742135 383.29216388479 954.36817742135 382.89216388479 954.06817742135 C 381.59216388479 952.86817742135 380.49216388479 951.56817742135 379.39216388479 950.26817742135 C 377.29216388479 947.56817742135 375.59216388479 944.56817742135 374.49216388479 941.36817742135 C 373.29216388479 938.16817742135 372.69216388479 934.76817742135 372.49216388479 931.36817742135 C 372.39216388479 927.96817742135 372.69216388479 924.46817742135 373.49216388479 921.16817742135 C 375.09216388479 914.46817742135 378.59216388479 908.16817742135 383.29216388479 903.46817742135 C 385.69216388479 901.06817742135 388.29216388479 899.16817742135 391.19216388479 897.66817742135 C 392.59216388479 896.96817742135 394.09216388479 896.26817742135 395.69216388479 895.86817742135 C 396.49216388479 895.66817742135 397.19216388479 895.36817742135 397.99216388479 895.26817742135 L 398.59216388479 895.16817742135 C 398.79216388479 895.06817742135 399.09216388479 895.06817742135 399.29216388479 895.06817742135 C 399.69216388479 894.96817742135 400.09216388479 894.86817742135 400.59216388479 894.86817742135 C 404.09216388479 894.26817742135 407.49216388479 894.06817742135 410.69216388479 894.36817742135 C 413.89216388479 894.66817742135 416.89216388479 895.46817742135 419.59216388479 896.76817742135 C 422.19216388479 898.06817742135 424.49216388479 899.86817742135 426.39216388479 902.06817742135 C 426.89216388479 902.66817742135 427.29216388479 903.16817742135 427.69216388479 903.86817742135 L 427.99216388479 904.36817742135 L 428.29216388479 904.76817742135 L 428.39216388479 904.96817742135 C 428.39216388479 905.06817742135 428.49216388479 905.06817742135 428.49216388479 905.06817742135 L 428.59216388479 905.16817742135 C 428.69216388479 905.26817742135 428.69216388479 905.36817742135 428.79216388479 905.56817742135 C 429.29216388479 906.56817742135 429.69216388479 907.76817742135 429.99216388479 909.06817742135 C 430.49216388479 911.66817742135 430.49216388479 914.56817742135 429.79216388479 917.26817742135 C 429.19216388479 919.96817742135 427.89216388479 922.36817742135 426.39216388479 924.06817742135 C 426.19216388479 924.26817742135 425.99216388479 924.46817742135 425.79216388479 924.66817742135 L 425.49216388479 924.96817742135 L 425.19216388479 925.26817742135 L 424.99216388479 925.36817742135 C 424.49216388479 925.76817742135 423.89216388479 926.26817742135 423.29216388479 926.66817742135 C 422.09216388479 927.46817742135 420.99216388479 928.06817742135 419.79216388479 928.56817742135 C 417.49216388479 929.46817742135 415.19216388479 929.66817742135 412.99216388479 929.26817742135 C 411.89216388479 929.06817742135 410.79216388479 928.66817742135 409.79216388479 928.16817742135 C 408.79216388479 927.66817742135 407.89216388479 927.06817742135 407.29216388479 926.36817742135 C 406.89216388479 925.96817742135 406.59216388479 925.56817742135 406.39216388479 925.26817742135 C 407.59216388479 920.16817742135 404.79216388479 914.86817742135 399.79216388479 913.06817742135 C 394.39216388479 911.06817742135 388.39216388479 913.96817742135 386.39216388479 919.36817742135 C 385.49216388479 921.86817742135 385.29216388479 924.56817742135 385.49216388479 926.96817742135 C 385.69216388479 929.36817742135 386.39216388479 931.36817742135 387.19216388479 933.16817742135 C 387.99216388479 934.96817742135 388.99216388479 936.46817742135 389.99216388479 937.86817742135 C 390.99216388479 939.26817742135 392.19216388479 940.46817742135 393.39216388479 941.56817742135 C 395.79216388479 943.76817742135 398.39216388479 945.36817742135 401.19216388479 946.66817742135 C 403.99216388479 947.96817742135 406.89216388479 948.86817742135 409.89216388479 949.26817742135 C 412.89216388479 949.76817742135 415.99216388479 949.76817742135 418.99216388479 949.36817742135 C 421.99216388479 948.96817742135 424.89216388479 948.16817742135 427.59216388479 946.96817742135 C 430.29216388479 945.76817742135 432.69216388479 944.36817742135 434.99216388479 942.66817742135 C 436.09216388479 941.86817742135 437.09216388479 940.96817742135 438.19216388479 940.06817742135 L 438.59216388479 939.66817742135 L 438.89216388479 939.36817742135 L 439.29216388479 938.96817742135 L 439.69216388479 938.56817742135 C 440.19216388479 938.06817742135 440.79216388479 937.46817742135 441.29216388479 936.86817742135 C 443.29216388479 934.56817742135 444.79216388479 932.06817742135 446.09216388479 929.46817742135 C 447.29216388479 926.86817742135 448.19216388479 924.16817742135 448.79216388479 921.46817742135 C 449.39216388479 918.76817742135 449.59216388479 915.96817742135 449.59216388479 913.26817742135 C 449.59216388479 910.46817742135 449.29216388479 907.66817742135 448.59216388479 904.96817742135 C 447.89216388479 902.16817742135 446.89216388479 899.46817742135 445.49216388479 896.86817742135 C 445.29216388479 896.56817742135 445.09216388479 896.26817742135 444.89216388479 895.86817742135 L 444.59216388479 895.26817742135 L 444.39216388479 894.86817742135 L 444.09216388479 894.36817742135 L 443.79216388479 893.96817742135 C 443.59216388479 893.66817742135 443.39216388479 893.46817742135 443.19216388479 893.16817742135 C 442.39216388479 892.06817742135 441.59216388479 891.06817742135 440.69216388479 890.06817742135 C 437.09216388479 886.06817742135 432.59216388479 882.66817742135 427.69216388479 880.46817742135 C 422.79216388479 878.26817742135 417.59216388479 877.06817742135 412.49216388479 876.76817742135 C 407.39216388479 876.46817742135 402.49216388479 876.86817742135 397.79216388479 877.86817742135 C 397.19216388479 877.96817742135 396.59216388479 878.06817742135 395.99216388479 878.26817742135 L 395.19216388479 878.46817742135 L 394.29216388479 878.66817742135 C 393.09216388479 878.96817742135 391.79216388479 879.36817742135 390.59216388479 879.76817742135 C 388.19216388479 880.66817742135 385.89216388479 881.66817742135 383.59216388479 882.86817742135 C 379.19216388479 885.36817742135 375.19216388479 888.46817742135 371.79216388479 892.16817742135 C 364.99216388479 899.46817742135 360.49216388479 908.46817742135 358.59216388479 918.06817742135 C 357.59216388479 922.86817742135 357.29216388479 927.76817742135 357.69216388479 932.66817742135 C 357.79216388479 937.16817742135 358.89216388479 941.96817742135 360.69216388479 946.56817742135 Z M 406.29216388479 924.46817742135 C 406.29216388479 924.46817742135 406.29216388479 924.36817742135 406.29216388479 924.36817742135 C 406.19216388479 924.26817742135 406.19216388479 924.26817742135 406.29216388479 924.46817742135 Z"/><path fill="#a37443" transform="matrix(0.4864513303054835 0 0 0.4864513303054835 38.96223357158679 -33.871765308517844)" d="M 609.19216388479 1106.76817742135 C 608.69216388479 1096.96817742135 607.79216388479 1087.16817742135 606.09216388479 1077.46817742135 C 604.49216388479 1067.66817742135 602.09216388479 1057.96817742135 598.79216388479 1048.56817742135 C 595.49216388479 1039.16817742135 591.19216388479 1029.96817742135 585.89216388479 1021.36817742135 C 580.59216388479 1012.76817742135 574.29216388479 1004.66817742135 567.09216388479 997.46817742135 C 563.49216388479 993.86817742135 559.69216388479 990.46817742135 555.59216388479 987.36817742135 C 553.59216388479 985.76817742135 551.49216388479 984.26817742135 549.39216388479 982.86817742135 C 547.29216388479 981.46817742135 545.09216388479 980.06817742135 542.89216388479 978.86817742135 C 534.09216388479 973.76817742135 524.49216388479 969.96817742135 514.79216388479 967.56817742135 C 509.89216388479 966.36817742135 504.99216388479 965.56817742135 499.99216388479 964.96817742135 C 495.09216388479 964.46817742135 490.09216388479 964.26817742135 485.19216388479 964.46817742135 L 485.19216388479 964.46817742135 C 483.49216388479 964.56817742135 481.99216388479 965.76817742135 481.69216388479 967.56817742135 C 481.29216388479 969.56817742135 482.69216388479 971.56817742135 484.69216388479 971.86817742135 C 489.29216388479 972.66817742135 493.79216388479 973.66817742135 498.19216388479 974.86817742135 C 502.59216388479 976.06817742135 506.99216388479 977.46817742135 511.19216388479 979.06817742135 C 519.59216388479 982.36817742135 527.59216388479 986.56817742135 534.89216388479 991.56817742135 C 549.49216388479 1001.66817742135 561.39216388479 1015.26817742135 570.59216388479 1030.56817742135 C 575.19216388479 1038.26817742135 579.19216388479 1046.26817742135 582.69216388479 1054.66817742135 C 586.19216388479 1062.96817742135 589.29216388479 1071.66817742135 591.69216388479 1080.46817742135 C 594.19216388479 1089.36817742135 595.99216388479 1098.36817742135 596.99216388479 1107.66817742135 C 597.49216388479 1112.26817742135 597.89216388479 1116.86817742135 597.99216388479 1121.56817742135 C 598.09216388479 1126.16817742135 598.09216388479 1130.86817742135 597.89216388479 1135.56817742135 C 597.49216388479 1144.86817742135 596.39216388479 1154.06817742135 594.69216388479 1163.16817742135 C 592.89216388479 1172.26817742135 590.39216388479 1181.16817742135 587.09216388479 1189.66817742135 C 583.79216388479 1198.16817742135 579.79216388479 1206.36817742135 574.99216388479 1214.06817742135 C 570.19216388479 1221.76817742135 564.69216388479 1228.96817742135 558.59216388479 1235.56817742135 C 552.49216388479 1242.26817742135 545.79216388479 1248.46817742135 538.69216388479 1254.26817742135 C 535.19216388479 1257.16817742135 531.49216388479 1260.06817742135 527.79216388479 1262.76817742135 C 524.09216388479 1265.46817742135 520.29216388479 1268.06817742135 516.49216388479 1270.66817742135 C 508.79216388479 1275.66817742135 500.79216388479 1280.36817742135 492.59216388479 1284.46817742135 C 488.49216388479 1286.56817742135 484.29216388479 1288.46817742135 480.09216388479 1290.26817742135 C 475.89216388479 1292.06817742135 471.59216388479 1293.76817742135 467.29216388479 1295.16817742135 C 462.99216388479 1296.66817742135 458.69216388479 1297.96817742135 454.29216388479 1298.96817742135 C 452.09216388479 1299.46817742135 449.89216388479 1299.96817742135 447.69216388479 1300.36817742135 C 445.39216388479 1300.76817742135 443.09216388479 1301.16817742135 440.79216388479 1301.56817742135 C 431.59216388479 1303.06817742135 422.39216388479 1304.06817742135 413.19216388479 1304.46817742135 C 394.79216388479 1305.36817742135 376.19216388479 1303.76817742135 358.39216388479 1298.96817742135 C 353.99216388479 1297.76817742135 349.59216388479 1296.36817742135 345.29216388479 1294.76817742135 C 340.99216388479 1293.16817742135 336.79216388479 1291.36817742135 332.69216388479 1289.36817742135 C 328.59216388479 1287.36817742135 324.59216388479 1285.16817742135 320.69216388479 1282.76817742135 C 316.79216388479 1280.36817742135 312.99216388479 1277.76817742135 309.39216388479 1274.96817742135 C 305.79216388479 1272.16817742135 302.29216388479 1269.26817742135 298.89216388479 1266.06817742135 C 297.19216388479 1264.46817742135 295.59216388479 1262.86817742135 293.99216388479 1261.26817742135 C 292.39216388479 1259.66817742135 290.79216388479 1257.96817742135 289.29216388479 1256.16817742135 C 287.79216388479 1254.46817742135 286.29216388479 1252.66817742135 284.89216388479 1250.86817742135 L 283.79216388479 1249.46817742135 L 282.79216388479 1248.16817742135 C 282.09216388479 1247.26817742135 281.39216388479 1246.36817742135 280.79216388479 1245.46817742135 C 278.09216388479 1241.76817742135 275.69216388479 1237.96817742135 273.39216388479 1233.96817742135 C 268.79216388479 1226.06817742135 264.99216388479 1217.86817742135 261.69216388479 1209.26817742135 C 260.09216388479 1204.96817742135 258.59216388479 1200.66817742135 257.19216388479 1196.36817742135 C 255.79216388479 1192.06817742135 254.59216388479 1187.56817742135 253.49216388479 1183.16817742135 C 251.19216388479 1174.26817742135 249.39216388479 1165.26817742135 247.89216388479 1156.16817742135 C 247.49216388479 1153.86817742135 247.19216388479 1151.56817742135 246.89216388479 1149.36817742135 C 246.69216388479 1148.26817742135 246.59216388479 1147.06817742135 246.49216388479 1145.96817742135 C 246.39216388479 1144.86817742135 246.19216388479 1143.76817742135 246.09216388479 1142.66817742135 C 245.69216388479 1138.26817742135 245.49216388479 1133.76817742135 245.49216388479 1129.36817742135 C 245.59216388479 1111.56817742135 249.59216388479 1093.76817742135 256.99216388479 1077.26817742135 C 260.69216388479 1069.06817742135 265.29216388479 1061.16817742135 270.69216388479 1053.86817742135 C 271.99216388479 1052.06817742135 273.39216388479 1050.26817742135 274.89216388479 1048.56817742135 C 276.39216388479 1046.86817742135 277.89216388479 1045.16817742135 279.39216388479 1043.56817742135 C 282.49216388479 1040.36817742135 285.89216388479 1037.36817742135 289.49216388479 1035.16817742135 L 289.59216388479 1035.06817742135 C 291.09216388479 1034.16817742135 291.79216388479 1032.26817742135 291.09216388479 1030.56817742135 C 290.29216388479 1028.66817742135 288.19216388479 1027.76817742135 286.29216388479 1028.56817742135 C 283.79216388479 1029.56817742135 281.49216388479 1030.76817742135 279.39216388479 1032.16817742135 C 277.19216388479 1033.46817742135 275.19216388479 1034.96817742135 273.19216388479 1036.56817742135 C 271.19216388479 1038.16817742135 269.29216388479 1039.76817742135 267.49216388479 1041.46817742135 C 265.69216388479 1043.16817742135 263.89216388479 1044.96817742135 262.19216388479 1046.76817742135 C 255.39216388479 1054.16817742135 249.59216388479 1062.36817742135 244.69216388479 1071.16817742135 C 234.99216388479 1088.76817742135 229.29216388479 1108.66817742135 228.39216388479 1129.06817742135 C 228.19216388479 1134.16817742135 228.19216388479 1139.26817742135 228.59216388479 1144.26817742135 C 228.69216388479 1145.56817742135 228.79216388479 1146.76817742135 228.89216388479 1148.06817742135 C 228.99216388479 1149.26817742135 229.19216388479 1150.46817742135 229.29216388479 1151.76817742135 C 229.59216388479 1154.16817742135 229.89216388479 1156.66817742135 230.19216388479 1159.06817742135 C 231.59216388479 1168.76817742135 233.49216388479 1178.46817742135 236.19216388479 1188.06817742135 C 237.49216388479 1192.86817742135 239.09216388479 1197.56817742135 240.79216388479 1202.26817742135 C 242.49216388479 1206.96817742135 244.39216388479 1211.56817742135 246.49216388479 1216.06817742135 C 250.69216388479 1225.06817742135 255.59216388479 1233.76817742135 261.29216388479 1241.96817742135 C 264.09216388479 1246.06817742135 267.09216388479 1250.06817742135 270.29216388479 1253.86817742135 C 271.09216388479 1254.86817742135 271.89216388479 1255.76817742135 272.69216388479 1256.76817742135 L 273.89216388479 1258.16817742135 L 275.09216388479 1259.56817742135 C 276.79216388479 1261.36817742135 278.39216388479 1263.16817742135 280.19216388479 1264.96817742135 C 287.09216388479 1272.06817742135 294.49216388479 1278.66817742135 302.39216388479 1284.56817742135 C 306.39216388479 1287.56817742135 310.49216388479 1290.26817742135 314.69216388479 1292.86817742135 C 318.89216388479 1295.46817742135 323.29216388479 1297.86817742135 327.69216388479 1300.06817742135 C 332.09216388479 1302.26817742135 336.69216388479 1304.26817742135 341.29216388479 1306.06817742135 C 345.89216388479 1307.86817742135 350.59216388479 1309.46817742135 355.29216388479 1310.76817742135 C 374.29216388479 1316.26817742135 394.09216388479 1318.56817742135 413.69216388479 1318.26817742135 C 423.49216388479 1318.16817742135 433.29216388479 1317.46817742135 442.99216388479 1316.16817742135 C 445.39216388479 1315.86817742135 447.79216388479 1315.56817742135 450.29216388479 1315.16817742135 C 452.79216388479 1314.76817742135 455.29216388479 1314.36817742135 457.69216388479 1313.86817742135 C 462.59216388479 1312.86817742135 467.49216388479 1311.56817742135 472.19216388479 1310.06817742135 C 481.69216388479 1307.06817742135 490.89216388479 1303.36817742135 499.79216388479 1299.16817742135 C 508.69216388479 1294.86817742135 517.29216388479 1290.06817742135 525.59216388479 1284.76817742135 C 529.69216388479 1282.06817742135 533.79216388479 1279.36817742135 537.79216388479 1276.36817742135 C 541.79216388479 1273.46817742135 545.69216388479 1270.46817742135 549.49216388479 1267.26817742135 C 557.09216388479 1260.96817742135 564.19216388479 1253.96817742135 570.79216388479 1246.36817742135 C 577.29216388479 1238.76817742135 582.99216388479 1230.36817742135 587.79216388479 1221.56817742135 C 592.59216388479 1212.76817742135 596.39216388479 1203.56817742135 599.49216388479 1194.06817742135 C 602.49216388479 1184.66817742135 604.69216388479 1174.96817742135 606.29216388479 1165.26817742135 C 607.89216388479 1155.56817742135 608.79216388479 1145.86817742135 609.19216388479 1136.06817742135 C 609.39216388479 1131.16817742135 609.49216388479 1126.36817742135 609.49216388479 1121.46817742135 C 609.59216388479 1116.56817742135 609.39216388479 1111.66817742135 609.19216388479 1106.76817742135 Z"/><path id="text" fill="#542827" transform="matrix(1.0201933442432904 0 0 1.0201933442432904 272.17060968356105 39.948073444505646)" d="M 78.04004085872 400.62582233011 C 78.04004085872 396.14582233011 79.33604085872 392.65782233011 81.92804085872 390.16182233011 C 84.52004085872 387.66582233011 88.12004085872 386.41782233011 92.72804085872 386.41782233011 L 109.81604085872 386.41782233011 C 119.35204085872 386.41782233011 126.55204085872 388.27382233011 131.41604085872 391.98582233011 C 136.28004085872 395.69782233011 138.71204085872 401.23382233011 138.71204085872 408.59382233011 C 138.71204085872 415.44182233011 136.68004085872 420.78582233011 132.61604085872 424.62582233011 C 128.55204085872 428.46582233011 123.09604085872 430.38582233011 116.24804085872 430.38582233011 L 130.84004085872 444.88182233011 C 131.99204085872 446.03382233011 132.56804085872 447.34582233011 132.56804085872 448.81782233011 C 132.56804085872 450.35382233011 131.89604085872 451.69782233011 130.55204085872 452.84982233011 C 129.14404085872 453.93782233011 127.76804085872 454.48182233011 126.42404085872 454.48182233011 C 124.56804085872 454.48182233011 122.87204085872 453.64982233011 121.33604085872 451.98582233011 L 100.60004085872 430.76982233011 L 90.80804085872 430.76982233011 L 90.80804085872 448.81782233011 C 90.80804085872 450.60982233011 90.20004085872 452.01782233011 88.98404085872 453.04182233011 C 87.76804085872 454.06582233011 86.23204085872 454.57782233011 84.37604085872 454.57782233011 C 82.45604085872 454.57782233011 80.92004085872 454.06582233011 79.76804085872 453.04182233011 C 78.61604085872 452.01782233011 78.04004085872 450.60982233011 78.04004085872 448.81782233011 L 78.04004085872 400.62582233011 Z M 109.43204085872 420.88182233011 C 113.65604085872 420.88182233011 116.95204085872 420.46582233011 119.32004085872 419.63382233011 C 121.68804085872 418.80182233011 123.36804085872 417.50582233011 124.36004085872 415.74582233011 C 125.35204085872 413.98582233011 125.84804085872 411.60182233011 125.84804085872 408.59382233011 C 125.84804085872 404.24182233011 124.52004085872 401.10582233011 121.86404085872 399.18582233011 C 119.20804085872 397.26582233011 115.06404085872 396.30582233011 109.43204085872 396.30582233011 L 94.93604085872 396.30582233011 C 93.65604085872 396.30582233011 92.64804085872 396.72182233011 91.91204085872 397.55382233011 C 91.17604085872 398.38582233011 90.80804085872 399.53782233011 90.80804085872 401.00982233011 L 90.80804085872 420.88182233011 L 109.43204085872 420.88182233011 Z M 153.83204085872 452.56182233011 C 150.79204085872 451.21782233011 148.42404085872 449.34582233011 146.72804085872 446.94582233011 C 145.03204085872 444.54582233011 144.18404085872 441.77782233011 144.18404085872 438.64182233011 C 144.18404085872 433.90582233011 146.15204085872 430.12982233011 150.08804085872 427.31382233011 C 154.02404085872 424.49782233011 159.35204085872 423.08982233011 166.07204085872 423.08982233011 C 171.89604085872 423.08982233011 176.56804085872 424.33782233011 180.08804085872 426.83382233011 L 180.08804085872 424.52982233011 C 180.08804085872 421.52182233011 179.16004085872 419.21782233011 177.30404085872 417.61782233011 C 175.44804085872 416.01782233011 172.76004085872 415.21782233011 169.24004085872 415.21782233011 C 163.99204085872 415.21782233011 159.48004085872 416.33782233011 155.70404085872 418.57782233011 C 154.10404085872 419.47382233011 152.72804085872 419.92182233011 151.57604085872 419.92182233011 C 150.16804085872 419.92182233011 148.92004085872 419.28182233011 147.83204085872 418.00182233011 C 147.12804085872 417.10582233011 146.77604085872 416.17782233011 146.77604085872 415.21782233011 C 146.77604085872 413.61782233011 147.60804085872 412.20982233011 149.27204085872 410.99382233011 C 151.57604085872 409.32982233011 154.48804085872 408.01782233011 158.00804085872 407.05782233011 C 161.52804085872 406.09782233011 165.24004085872 405.61782233011 169.14404085872 405.61782233011 C 176.56804085872 405.61782233011 182.40804085872 407.29782233011 186.66404085872 410.65782233011 C 190.92004085872 414.01782233011 193.04804085872 418.64182233011 193.04804085872 424.52982233011 L 193.04804085872 449.20182233011 C 193.04804085872 450.86582233011 192.48804085872 452.17782233011 191.36804085872 453.13782233011 C 190.24804085872 454.09782233011 188.72804085872 454.57782233011 186.80804085872 454.57782233011 C 184.82404085872 454.57782233011 183.28804085872 454.12982233011 182.20004085872 453.23382233011 C 181.11204085872 452.33782233011 180.56804085872 451.05782233011 180.56804085872 449.39382233011 L 180.56804085872 448.33782233011 C 176.92004085872 452.49782233011 171.51204085872 454.57782233011 164.34404085872 454.57782233011 C 160.37604085872 454.57782233011 156.87204085872 453.90582233011 153.83204085872 452.56182233011 Z M 176.77604085872 443.87382233011 C 179.04804085872 442.62582233011 180.18404085872 440.88182233011 180.18404085872 438.64182233011 C 180.18404085872 436.52982233011 179.03204085872 434.83382233011 176.72804085872 433.55382233011 C 174.42404085872 432.27382233011 171.35204085872 431.63382233011 167.51204085872 431.63382233011 C 164.05604085872 431.63382233011 161.38404085872 432.24182233011 159.49604085872 433.45782233011 C 157.60804085872 434.67382233011 156.66404085872 436.40182233011 156.66404085872 438.64182233011 C 156.66404085872 440.88182233011 157.59204085872 442.62582233011 159.44804085872 443.87382233011 C 161.30404085872 445.12182233011 163.92804085872 445.74582233011 167.32004085872 445.74582233011 C 171.35204085872 445.74582233011 174.50404085872 445.12182233011 176.77604085872 443.87382233011 Z M 212.77604085872 451.64982233011 C 208.90404085872 449.69782233011 205.88004085872 446.86582233011 203.70404085872 443.15382233011 C 201.52804085872 439.44182233011 200.44004085872 435.08982233011 200.44004085872 430.09782233011 C 200.44004085872 425.10582233011 201.48004085872 420.76982233011 203.56004085872 417.08982233011 C 205.64004085872 413.40982233011 208.63204085872 410.57782233011 212.53604085872 408.59382233011 C 216.44004085872 406.60982233011 221.04804085872 405.61782233011 226.36004085872 405.61782233011 C 230.26404085872 405.61782233011 233.56004085872 406.24182233011 236.24804085872 407.48982233011 C 238.93604085872 408.73782233011 241.46404085872 410.60982233011 243.83204085872 413.10582233011 L 243.92804085872 386.51382233011 C 243.92804085872 384.72182233011 244.50404085872 383.31382233011 245.65604085872 382.28982233011 C 246.80804085872 381.26582233011 248.34404085872 380.75382233011 250.26404085872 380.75382233011 C 252.18404085872 380.75382233011 253.70404085872 381.24982233011 254.82404085872 382.24182233011 C 255.94404085872 383.23382233011 256.50404085872 384.65782233011 256.50404085872 386.51382233011 L 256.50404085872 448.81782233011 C 256.50404085872 450.67382233011 255.94404085872 452.09782233011 254.82404085872 453.08982233011 C 253.70404085872 454.08182233011 252.18404085872 454.57782233011 250.26404085872 454.57782233011 C 248.34404085872 454.57782233011 246.80804085872 454.06582233011 245.65604085872 453.04182233011 C 244.50404085872 452.01782233011 243.92804085872 450.60982233011 243.92804085872 448.81782233011 L 243.92804085872 446.89782233011 C 239.64004085872 452.01782233011 233.68804085872 454.57782233011 226.07204085872 454.57782233011 C 221.08004085872 454.57782233011 216.64804085872 453.60182233011 212.77604085872 451.64982233011 Z M 239.70404085872 440.75382233011 C 242.52004085872 438.19382233011 243.92804085872 434.64182233011 243.92804085872 430.09782233011 C 243.92804085872 425.55382233011 242.52004085872 422.00182233011 239.70404085872 419.44182233011 C 236.88804085872 416.88182233011 232.98404085872 415.60182233011 227.99204085872 415.60182233011 C 223.32004085872 415.60182233011 219.67204085872 416.88182233011 217.04804085872 419.44182233011 C 214.42404085872 422.00182233011 213.11204085872 425.55382233011 213.11204085872 430.09782233011 C 213.11204085872 434.64182233011 214.42404085872 438.19382233011 217.04804085872 440.75382233011 C 219.67204085872 443.31382233011 223.32004085872 444.59382233011 227.99204085872 444.59382233011 C 232.98404085872 444.59382233011 236.88804085872 443.31382233011 239.70404085872 440.75382233011 Z M 266.96804085872 453.04182233011 C 265.88004085872 452.01782233011 265.33604085872 450.60982233011 265.33604085872 448.81782233011 L 265.33604085872 386.51382233011 C 265.33604085872 384.72182233011 265.88004085872 383.31382233011 266.96804085872 382.28982233011 C 268.05604085872 381.26582233011 269.59204085872 380.75382233011 271.57604085872 380.75382233011 C 273.49604085872 380.75382233011 275.03204085872 381.26582233011 276.18404085872 382.28982233011 C 277.33604085872 383.31382233011 277.91204085872 384.72182233011 277.91204085872 386.51382233011 L 277.91204085872 414.16182233011 C 280.28004085872 411.21782233011 282.93604085872 409.05782233011 285.88004085872 407.68182233011 C 288.82404085872 406.30582233011 292.24804085872 405.61782233011 296.15204085872 405.61782233011 C 302.29604085872 405.61782233011 307.14404085872 407.55382233011 310.69604085872 411.42582233011 C 314.24804085872 415.29782233011 316.02404085872 420.56182233011 316.02404085872 427.21782233011 L 316.02404085872 448.81782233011 C 316.02404085872 450.60982233011 315.44804085872 452.01782233011 314.29604085872 453.04182233011 C 313.14404085872 454.06582233011 311.60804085872 454.57782233011 309.68804085872 454.57782233011 C 307.70404085872 454.57782233011 306.16804085872 454.06582233011 305.08004085872 453.04182233011 C 303.99204085872 452.01782233011 303.44804085872 450.60982233011 303.44804085872 448.81782233011 L 303.44804085872 427.21782233011 C 303.44804085872 423.56982233011 302.55204085872 420.72182233011 300.76004085872 418.67382233011 C 298.96804085872 416.62582233011 296.47204085872 415.60182233011 293.27204085872 415.60182233011 C 288.40804085872 415.60182233011 284.63204085872 417.02582233011 281.94404085872 419.87382233011 C 279.25604085872 422.72182233011 277.91204085872 426.70582233011 277.91204085872 431.82582233011 L 277.91204085872 448.81782233011 C 277.91204085872 450.60982233011 277.33604085872 452.01782233011 276.18404085872 453.04182233011 C 275.03204085872 454.06582233011 273.49604085872 454.57782233011 271.57604085872 454.57782233011 C 269.59204085872 454.57782233011 268.05604085872 454.06582233011 266.96804085872 453.04182233011 Z M 336.18404085872 451.60182233011 C 332.08804085872 449.61782233011 328.93604085872 446.81782233011 326.72804085872 443.20182233011 C 324.52004085872 439.58582233011 323.41604085872 435.34582233011 323.41604085872 430.48182233011 C 323.41604085872 422.60982233011 325.70404085872 416.49782233011 330.28004085872 412.14582233011 C 334.85604085872 407.79382233011 341.30404085872 405.61782233011 349.62404085872 405.61782233011 C 354.74404085872 405.61782233011 359.27204085872 406.41782233011 363.20804085872 408.01782233011 C 367.14404085872 409.61782233011 370.21604085872 411.84182233011 372.42404085872 414.68982233011 C 374.63204085872 417.53782233011 375.73604085872 420.78582233011 375.73604085872 424.43382233011 C 375.73604085872 427.50582233011 374.76004085872 429.87382233011 372.80804085872 431.53782233011 C 370.85604085872 433.20182233011 368.08804085872 434.03382233011 364.50404085872 434.03382233011 L 335.60804085872 434.03382233011 C 335.60804085872 437.61782233011 336.87204085872 440.32182233011 339.40004085872 442.14582233011 C 341.92804085872 443.96982233011 345.65604085872 444.88182233011 350.58404085872 444.88182233011 C 355.76804085872 444.88182233011 360.18404085872 443.72982233011 363.83204085872 441.42582233011 C 365.88004085872 440.14582233011 367.48004085872 439.50582233011 368.63204085872 439.50582233011 C 369.72004085872 439.50582233011 370.77604085872 440.01782233011 371.80004085872 441.04182233011 C 372.88804085872 442.12982233011 373.43204085872 443.31382233011 373.43204085872 444.59382233011 C 373.43204085872 446.12982233011 372.79204085872 447.34582233011 371.51204085872 448.24182233011 C 368.82404085872 450.28982233011 365.68804085872 451.85782233011 362.10404085872 452.94582233011 C 358.52004085872 454.03382233011 354.68004085872 454.57782233011 350.58404085872 454.57782233011 C 345.08004085872 454.57782233011 340.28004085872 453.58582233011 336.18404085872 451.60182233011 Z M 360.66404085872 425.20182233011 C 361.75204085872 425.20182233011 362.52004085872 424.99382233011 362.96804085872 424.57782233011 C 363.41604085872 424.16182233011 363.64004085872 423.47382233011 363.64004085872 422.51382233011 C 363.64004085872 420.27382233011 362.37604085872 418.51382233011 359.84804085872 417.23382233011 C 357.32004085872 415.95382233011 353.91204085872 415.31382233011 349.62404085872 415.31382233011 C 345.33604085872 415.31382233011 341.96004085872 416.20982233011 339.49604085872 418.00182233011 C 337.03204085872 419.79382233011 335.80004085872 422.19382233011 335.80004085872 425.20182233011 L 360.66404085872 425.20182233011 Z M 433.62404085872 453.04182233011 C 432.47204085872 452.01782233011 431.89604085872 450.60982233011 431.89604085872 448.81782233011 L 431.89604085872 396.30582233011 L 413.36804085872 396.30582233011 C 411.51204085872 396.30582233011 410.05604085872 395.87382233011 409.00004085872 395.00982233011 C 407.94404085872 394.14582233011 407.41604085872 392.94582233011 407.41604085872 391.40982233011 C 407.41604085872 389.80982233011 407.92804085872 388.57782233011 408.95204085872 387.71382233011 C 409.97604085872 386.84982233011 411.44804085872 386.41782233011 413.36804085872 386.41782233011 L 463.19204085872 386.41782233011 C 465.11204085872 386.41782233011 466.58404085872 386.84982233011 467.60804085872 387.71382233011 C 468.63204085872 388.57782233011 469.14404085872 389.80982233011 469.14404085872 391.40982233011 C 469.14404085872 392.94582233011 468.61604085872 394.14582233011 467.56004085872 395.00982233011 C 466.50404085872 395.87382233011 465.04804085872 396.30582233011 463.19204085872 396.30582233011 L 444.66404085872 396.30582233011 L 444.66404085872 448.81782233011 C 444.66404085872 450.54582233011 444.07204085872 451.93782233011 442.88804085872 452.99382233011 C 441.70404085872 454.04982233011 440.15204085872 454.57782233011 438.23204085872 454.57782233011 C 436.31204085872 454.57782233011 434.77604085872 454.06582233011 433.62404085872 453.04182233011 Z M 473.46404085872 451.60182233011 C 469.36804085872 449.61782233011 466.21604085872 446.81782233011 464.00804085872 443.20182233011 C 461.80004085872 439.58582233011 460.69604085872 435.34582233011 460.69604085872 430.48182233011 C 460.69604085872 422.60982233011 462.98404085872 416.49782233011 467.56004085872 412.14582233011 C 472.13604085872 407.79382233011 478.58404085872 405.61782233011 486.90404085872 405.61782233011 C 492.02404085872 405.61782233011 496.55204085872 406.41782233011 500.48804085872 408.01782233011 C 504.42404085872 409.61782233011 507.49604085872 411.84182233011 509.70404085872 414.68982233011 C 511.91204085872 417.53782233011 513.01604085872 420.78582233011 513.01604085872 424.43382233011 C 513.01604085872 427.50582233011 512.04004085872 429.87382233011 510.08804085872 431.53782233011 C 508.13604085872 433.20182233011 505.36804085872 434.03382233011 501.78404085872 434.03382233011 L 472.88804085872 434.03382233011 C 472.88804085872 437.61782233011 474.15204085872 440.32182233011 476.68004085872 442.14582233011 C 479.20804085872 443.96982233011 482.93604085872 444.88182233011 487.86404085872 444.88182233011 C 493.04804085872 444.88182233011 497.46404085872 443.72982233011 501.11204085872 441.42582233011 C 503.16004085872 440.14582233011 504.76004085872 439.50582233011 505.91204085872 439.50582233011 C 507.00004085872 439.50582233011 508.05604085872 440.01782233011 509.08004085872 441.04182233011 C 510.16804085872 442.12982233011 510.71204085872 443.31382233011 510.71204085872 444.59382233011 C 510.71204085872 446.12982233011 510.07204085872 447.34582233011 508.79204085872 448.24182233011 C 506.10404085872 450.28982233011 502.96804085872 451.85782233011 499.38404085872 452.94582233011 C 495.80004085872 454.03382233011 491.96004085872 454.57782233011 487.86404085872 454.57782233011 C 482.36004085872 454.57782233011 477.56004085872 453.58582233011 473.46404085872 451.60182233011 Z M 497.94404085872 425.20182233011 C 499.03204085872 425.20182233011 499.80004085872 424.99382233011 500.24804085872 424.57782233011 C 500.69604085872 424.16182233011 500.92004085872 423.47382233011 500.92004085872 422.51382233011 C 500.92004085872 420.27382233011 499.65604085872 418.51382233011 497.12804085872 417.23382233011 C 494.60004085872 415.95382233011 491.19204085872 415.31382233011 486.90404085872 415.31382233011 C 482.61604085872 415.31382233011 479.24004085872 416.20982233011 476.77604085872 418.00182233011 C 474.31204085872 419.79382233011 473.08004085872 422.19382233011 473.08004085872 425.20182233011 L 497.94404085872 425.20182233011 Z M 527.17604085872 452.56182233011 C 524.13604085872 451.21782233011 521.76804085872 449.34582233011 520.07204085872 446.94582233011 C 518.37604085872 444.54582233011 517.52804085872 441.77782233011 517.52804085872 438.64182233011 C 517.52804085872 433.90582233011 519.49604085872 430.12982233011 523.43204085872 427.31382233011 C 527.36804085872 424.49782233011 532.69604085872 423.08982233011 539.41604085872 423.08982233011 C 545.24004085872 423.08982233011 549.91204085872 424.33782233011 553.43204085872 426.83382233011 L 553.43204085872 424.52982233011 C 553.43204085872 421.52182233011 552.50404085872 419.21782233011 550.64804085872 417.61782233011 C 548.79204085872 416.01782233011 546.10404085872 415.21782233011 542.58404085872 415.21782233011 C 537.33604085872 415.21782233011 532.82404085872 416.33782233011 529.04804085872 418.57782233011 C 527.44804085872 419.47382233011 526.07204085872 419.92182233011 524.92004085872 419.92182233011 C 523.51204085872 419.92182233011 522.26404085872 419.28182233011 521.17604085872 418.00182233011 C 520.47204085872 417.10582233011 520.12004085872 416.17782233011 520.12004085872 415.21782233011 C 520.12004085872 413.61782233011 520.95204085872 412.20982233011 522.61604085872 410.99382233011 C 524.92004085872 409.32982233011 527.83204085872 408.01782233011 531.35204085872 407.05782233011 C 534.87204085872 406.09782233011 538.58404085872 405.61782233011 542.48804085872 405.61782233011 C 549.91204085872 405.61782233011 555.75204085872 407.29782233011 560.00804085872 410.65782233011 C 564.26404085872 414.01782233011 566.39204085872 418.64182233011 566.39204085872 424.52982233011 L 566.39204085872 449.20182233011 C 566.39204085872 450.86582233011 565.83204085872 452.17782233011 564.71204085872 453.13782233011 C 563.59204085872 454.09782233011 562.07204085872 454.57782233011 560.15204085872 454.57782233011 C 558.16804085872 454.57782233011 556.63204085872 454.12982233011 555.54404085872 453.23382233011 C 554.45604085872 452.33782233011 553.91204085872 451.05782233011 553.91204085872 449.39382233011 L 553.91204085872 448.33782233011 C 550.26404085872 452.49782233011 544.85604085872 454.57782233011 537.68804085872 454.57782233011 C 533.72004085872 454.57782233011 530.21604085872 453.90582233011 527.17604085872 452.56182233011 Z M 550.12004085872 443.87382233011 C 552.39204085872 442.62582233011 553.52804085872 440.88182233011 553.52804085872 438.64182233011 C 553.52804085872 436.52982233011 552.37604085872 434.83382233011 550.07204085872 433.55382233011 C 547.76804085872 432.27382233011 544.69604085872 431.63382233011 540.85604085872 431.63382233011 C 537.40004085872 431.63382233011 534.72804085872 432.24182233011 532.84004085872 433.45782233011 C 530.95204085872 434.67382233011 530.00804085872 436.40182233011 530.00804085872 438.64182233011 C 530.00804085872 440.88182233011 530.93604085872 442.62582233011 532.79204085872 443.87382233011 C 534.64804085872 445.12182233011 537.27204085872 445.74582233011 540.66404085872 445.74582233011 C 544.69604085872 445.74582233011 547.84804085872 445.12182233011 550.12004085872 443.87382233011 Z"/><path id="text" fill="#a37443" transform="matrix(0.5100966721216452 0 0 0.5100966721216452 274.9618586734107 108.34183524257585)" d="M 163.42408171744 905.07564466022 C 158.27208171744 902.99564466022 154.25608171744 900.13164466022 151.37608171744 896.48364466022 C 150.86408171744 895.84364466022 150.60808171744 895.17164466022 150.60808171744 894.46764466022 C 150.60808171744 893.57164466022 151.08808171744 892.70764466022 152.04808171744 891.87564466022 C 152.56008171744 891.49164466022 153.10408171744 891.29964466022 153.68008171744 891.29964466022 C 154.83208171744 891.29964466022 155.85608171744 891.84364466022 156.75208171744 892.93164466022 C 159.37608171744 895.81164466022 162.68808171744 898.03564466022 166.68808171744 899.60364466022 C 170.68808171744 901.17164466022 175.24808171744 901.95564466022 180.36808171744 901.95564466022 C 186.00008171744 901.95564466022 190.35208171744 900.91564466022 193.42408171744 898.83564466022 C 196.49608171744 896.75564466022 198.03208171744 893.79564466022 198.03208171744 889.95564466022 C 198.03208171744 886.62764466022 196.54408171744 883.93964466022 193.56808171744 881.89164466022 C 190.59208171744 879.84364466022 185.55208171744 878.01964466022 178.44808171744 876.41964466022 C 169.16808171744 874.37164466022 162.49608171744 871.79564466022 158.43208171744 868.69164466022 C 154.36808171744 865.58764466022 152.33608171744 861.47564466022 152.33608171744 856.35564466022 C 152.33608171744 851.04364466022 154.59208171744 846.83564466022 159.10408171744 843.73164466022 C 163.61608171744 840.62764466022 169.71208171744 839.07564466022 177.39208171744 839.07564466022 C 183.21608171744 839.07564466022 188.48008171744 840.09964466022 193.18408171744 842.14764466022 C 197.88808171744 844.19564466022 201.23208171744 846.94764466022 203.21608171744 850.40364466022 C 203.60008171744 851.04364466022 203.79208171744 851.65164466022 203.79208171744 852.22764466022 C 203.79208171744 853.25164466022 203.24808171744 854.14764466022 202.16008171744 854.91564466022 C 201.71208171744 855.17164466022 201.20008171744 855.29964466022 200.62408171744 855.29964466022 C 199.21608171744 855.29964466022 198.12808171744 854.75564466022 197.36008171744 853.66764466022 C 195.50408171744 850.97964466022 192.88008171744 848.91564466022 189.48808171744 847.47564466022 C 186.09608171744 846.03564466022 182.06408171744 845.31564466022 177.39208171744 845.31564466022 C 165.55208171744 845.31564466022 159.63208171744 848.99564466022 159.63208171744 856.35564466022 C 159.63208171744 858.59564466022 160.24008171744 860.46764466022 161.45608171744 861.97164466022 C 162.67208171744 863.47564466022 164.64008171744 864.81964466022 167.36008171744 866.00364466022 C 170.08008171744 867.18764466022 173.87208171744 868.35564466022 178.73608171744 869.50764466022 C 188.20808171744 871.74764466022 195.02408171744 874.45164466022 199.18408171744 877.61964466022 C 203.34408171744 880.78764466022 205.42408171744 884.89964466022 205.42408171744 889.95564466022 C 205.42408171744 895.58764466022 203.16808171744 900.03564466022 198.65608171744 903.29964466022 C 194.14408171744 906.56364466022 188.04808171744 908.19564466022 180.36808171744 908.19564466022 C 174.22408171744 908.19564466022 168.57608171744 907.15564466022 163.42408171744 905.07564466022 Z M 219.00808171744 847.66764466022 C 218.01608171744 846.73964466022 217.52008171744 845.60364466022 217.52008171744 844.25964466022 C 217.52008171744 842.91564466022 218.01608171744 841.76364466022 219.00808171744 840.80364466022 C 220.00008171744 839.84364466022 221.20008171744 839.36364466022 222.60808171744 839.36364466022 C 224.01608171744 839.36364466022 225.24808171744 839.85964466022 226.30408171744 840.85164466022 C 227.36008171744 841.84364466022 227.88808171744 842.97964466022 227.88808171744 844.25964466022 C 227.88808171744 845.53964466022 227.36008171744 846.65964466022 226.30408171744 847.61964466022 C 225.24808171744 848.57964466022 224.01608171744 849.05964466022 222.60808171744 849.05964466022 C 221.20008171744 849.05964466022 220.00008171744 848.59564466022 219.00808171744 847.66764466022 Z M 220.06408171744 907.18764466022 C 219.45608171744 906.51564466022 219.15208171744 905.57164466022 219.15208171744 904.35564466022 L 219.15208171744 863.07564466022 C 219.15208171744 861.85964466022 219.45608171744 860.91564466022 220.06408171744 860.24364466022 C 220.67208171744 859.57164466022 221.52008171744 859.23564466022 222.60808171744 859.23564466022 C 223.76008171744 859.23564466022 224.64008171744 859.57164466022 225.24808171744 860.24364466022 C 225.85608171744 860.91564466022 226.16008171744 861.85964466022 226.16008171744 863.07564466022 L 226.16008171744 904.35564466022 C 226.16008171744 905.57164466022 225.85608171744 906.51564466022 225.24808171744 907.18764466022 C 224.64008171744 907.85964466022 223.76008171744 908.19564466022 222.60808171744 908.19564466022 C 221.52008171744 908.19564466022 220.67208171744 907.85964466022 220.06408171744 907.18764466022 Z M 242.43208171744 907.18764466022 C 241.82408171744 906.51564466022 241.52008171744 905.57164466022 241.52008171744 904.35564466022 L 241.52008171744 863.07564466022 C 241.52008171744 861.85964466022 241.80808171744 860.91564466022 242.38408171744 860.24364466022 C 242.96008171744 859.57164466022 243.82408171744 859.23564466022 244.97608171744 859.23564466022 C 246.06408171744 859.23564466022 246.91208171744 859.57164466022 247.52008171744 860.24364466022 C 248.12808171744 860.91564466022 248.43208171744 861.85964466022 248.43208171744 863.07564466022 L 248.43208171744 868.73964466022 C 250.80008171744 865.60364466022 253.66408171744 863.23564466022 257.02408171744 861.63564466022 C 260.38408171744 860.03564466022 264.08008171744 859.23564466022 268.11208171744 859.23564466022 C 274.19208171744 859.23564466022 278.88008171744 860.93164466022 282.17608171744 864.32364466022 C 285.47208171744 867.71564466022 287.12008171744 872.57964466022 287.12008171744 878.91564466022 L 287.12008171744 904.35564466022 C 287.12008171744 905.57164466022 286.80008171744 906.51564466022 286.16008171744 907.18764466022 C 285.52008171744 907.85964466022 284.65608171744 908.19564466022 283.56808171744 908.19564466022 C 282.41608171744 908.19564466022 281.55208171744 907.85964466022 280.97608171744 907.18764466022 C 280.40008171744 906.51564466022 280.11208171744 905.57164466022 280.11208171744 904.35564466022 L 280.11208171744 878.91564466022 C 280.11208171744 869.82764466022 275.82408171744 865.28364466022 267.24808171744 865.28364466022 C 261.61608171744 865.28364466022 257.08808171744 866.94764466022 253.66408171744 870.27564466022 C 250.24008171744 873.60364466022 248.52808171744 878.01964466022 248.52808171744 883.52364466022 L 248.52808171744 904.35564466022 C 248.52808171744 905.50764466022 248.22408171744 906.43564466022 247.61608171744 907.13964466022 C 247.00808171744 907.84364466022 246.12808171744 908.19564466022 244.97608171744 908.19564466022 C 243.88808171744 908.19564466022 243.04008171744 907.85964466022 242.43208171744 907.18764466022 Z M 309.87208171744 905.17164466022 C 305.96808171744 903.15564466022 302.96008171744 900.29164466022 300.84808171744 896.57964466022 C 298.73608171744 892.86764466022 297.68008171744 888.54764466022 297.68008171744 883.61964466022 C 297.68008171744 878.75564466022 298.73608171744 874.48364466022 300.84808171744 870.80364466022 C 302.96008171744 867.12364466022 305.96808171744 864.27564466022 309.87208171744 862.25964466022 C 313.77608171744 860.24364466022 318.28808171744 859.23564466022 323.40808171744 859.23564466022 C 328.20808171744 859.23564466022 332.36808171744 859.90764466022 335.88808171744 861.25164466022 C 339.40808171744 862.59564466022 342.19208171744 864.57964466022 344.24008171744 867.20364466022 C 344.75208171744 867.90764466022 345.00808171744 868.57964466022 345.00808171744 869.21964466022 C 345.00808171744 870.17964466022 344.52808171744 871.04364466022 343.56808171744 871.81164466022 C 343.12008171744 872.19564466022 342.54408171744 872.38764466022 341.84008171744 872.38764466022 C 340.75208171744 872.38764466022 339.72808171744 871.90764466022 338.76808171744 870.94764466022 C 335.37608171744 867.17164466022 330.25608171744 865.28364466022 323.40808171744 865.28364466022 C 317.45608171744 865.28364466022 312.86408171744 866.86764466022 309.63208171744 870.03564466022 C 306.40008171744 873.20364466022 304.78408171744 877.73164466022 304.78408171744 883.61964466022 C 304.78408171744 889.44364466022 306.41608171744 893.98764466022 309.68008171744 897.25164466022 C 312.94408171744 900.51564466022 317.52008171744 902.14764466022 323.40808171744 902.14764466022 C 326.67208171744 902.14764466022 329.68008171744 901.65164466022 332.43208171744 900.65964466022 C 335.18408171744 899.66764466022 337.45608171744 898.24364466022 339.24808171744 896.38764466022 C 340.33608171744 895.29964466022 341.36008171744 894.75564466022 342.32008171744 894.75564466022 C 342.89608171744 894.75564466022 343.53608171744 895.01164466022 344.24008171744 895.52364466022 C 345.13608171744 896.29164466022 345.58408171744 897.12364466022 345.58408171744 898.01964466022 C 345.58408171744 898.85164466022 345.23208171744 899.55564466022 344.52808171744 900.13164466022 C 341.39208171744 902.94764466022 338.12808171744 904.99564466022 334.73608171744 906.27564466022 C 331.34408171744 907.55564466022 327.56808171744 908.19564466022 323.40808171744 908.19564466022 C 318.28808171744 908.19564466022 313.77608171744 907.18764466022 309.87208171744 905.17164466022 Z M 360.75208171744 901.76364466022 C 356.20808171744 897.47564466022 353.93608171744 891.39564466022 353.93608171744 883.52364466022 C 353.93608171744 875.97164466022 356.24008171744 870.03564466022 360.84808171744 865.71564466022 C 365.45608171744 861.39564466022 371.76008171744 859.23564466022 379.76008171744 859.23564466022 C 384.68808171744 859.23564466022 389.07208171744 860.01964466022 392.91208171744 861.58764466022 C 396.75208171744 863.15564466022 399.74408171744 865.36364466022 401.88808171744 868.21164466022 C 404.03208171744 871.05964466022 405.10408171744 874.30764466022 405.10408171744 877.95564466022 C 405.10408171744 880.64364466022 404.35208171744 882.72364466022 402.84808171744 884.19564466022 C 401.34408171744 885.66764466022 399.28008171744 886.40364466022 396.65608171744 886.40364466022 L 361.13608171744 886.40364466022 C 361.13608171744 891.33164466022 362.80008171744 895.18764466022 366.12808171744 897.97164466022 C 369.45608171744 900.75564466022 374.09608171744 902.14764466022 380.04808171744 902.14764466022 C 383.69608171744 902.14764466022 386.83208171744 901.74764466022 389.45608171744 900.94764466022 C 392.08008171744 900.14764466022 394.54408171744 898.85164466022 396.84808171744 897.05964466022 C 398.06408171744 896.03564466022 399.05608171744 895.52364466022 399.82408171744 895.52364466022 C 400.40008171744 895.52364466022 400.94408171744 895.77964466022 401.45608171744 896.29164466022 C 402.35208171744 897.05964466022 402.80008171744 897.85964466022 402.80008171744 898.69164466022 C 402.80008171744 899.33164466022 402.41608171744 900.03564466022 401.64808171744 900.80364466022 C 399.02408171744 903.29964466022 395.95208171744 905.15564466022 392.43208171744 906.37164466022 C 388.91208171744 907.58764466022 384.78408171744 908.19564466022 380.04808171744 908.19564466022 C 371.72808171744 908.19564466022 365.29608171744 906.05164466022 360.75208171744 901.76364466022 Z M 394.54408171744 880.73964466022 C 395.69608171744 880.73964466022 396.56008171744 880.49964466022 397.13608171744 880.01964466022 C 397.71208171744 879.53964466022 398.00008171744 878.65964466022 398.00008171744 877.37964466022 C 398.00008171744 875.07564466022 397.23208171744 872.99564466022 395.69608171744 871.13964466022 C 394.16008171744 869.28364466022 392.00008171744 867.84364466022 389.21608171744 866.81964466022 C 386.43208171744 865.79564466022 383.28008171744 865.28364466022 379.76008171744 865.28364466022 C 374.06408171744 865.28364466022 369.56808171744 866.67564466022 366.27208171744 869.45964466022 C 362.97608171744 872.24364466022 361.32808171744 876.00364466022 361.32808171744 880.73964466022 L 394.54408171744 880.73964466022 Z M 440.76808171744 906.27564466022 C 440.09608171744 905.63564466022 439.76008171744 904.86764466022 439.76008171744 903.97164466022 C 439.76008171744 902.75564466022 440.30408171744 901.69964466022 441.39208171744 900.80364466022 L 476.24008171744 871.23564466022 C 478.60808171744 869.25164466022 480.30408171744 867.31564466022 481.32808171744 865.42764466022 C 482.35208171744 863.53964466022 482.86408171744 861.09164466022 482.86408171744 858.08364466022 C 482.86408171744 854.05164466022 481.45608171744 850.89964466022 478.64008171744 848.62764466022 C 475.82408171744 846.35564466022 471.88808171744 845.21964466022 466.83208171744 845.21964466022 C 462.67208171744 845.21964466022 458.86408171744 845.98764466022 455.40808171744 847.52364466022 C 451.95208171744 849.05964466022 449.13608171744 851.23564466022 446.96008171744 854.05164466022 C 446.12808171744 855.07564466022 445.16808171744 855.58764466022 444.08008171744 855.58764466022 C 443.37608171744 855.58764466022 442.67208171744 855.33164466022 441.96808171744 854.81964466022 C 441.13608171744 854.24364466022 440.72008171744 853.44364466022 440.72008171744 852.41964466022 C 440.72008171744 851.45964466022 441.04008171744 850.62764466022 441.68008171744 849.92364466022 C 444.49608171744 846.46764466022 448.11208171744 843.79564466022 452.52808171744 841.90764466022 C 456.94408171744 840.01964466022 461.71208171744 839.07564466022 466.83208171744 839.07564466022 C 471.50408171744 839.07564466022 475.60008171744 839.85964466022 479.12008171744 841.42764466022 C 482.64008171744 842.99564466022 485.36008171744 845.20364466022 487.28008171744 848.05164466022 C 489.20008171744 850.89964466022 490.16008171744 854.24364466022 490.16008171744 858.08364466022 C 490.16008171744 861.60364466022 489.34408171744 864.78764466022 487.71208171744 867.63564466022 C 486.08008171744 870.48364466022 483.37608171744 873.50764466022 479.60008171744 876.70764466022 L 450.70408171744 901.28364466022 L 487.08808171744 901.28364466022 C 489.45608171744 901.28364466022 490.64008171744 902.27564466022 490.64008171744 904.25964466022 C 490.64008171744 906.24364466022 489.45608171744 907.23564466022 487.08808171744 907.23564466022 L 443.50408171744 907.23564466022 C 442.35208171744 907.23564466022 441.44008171744 906.91564466022 440.76808171744 906.27564466022 Z M 513.10408171744 904.06764466022 C 508.94408171744 901.31564466022 505.76008171744 897.34764466022 503.55208171744 892.16364466022 C 501.34408171744 886.97964466022 500.24008171744 880.80364466022 500.24008171744 873.63564466022 C 500.24008171744 866.46764466022 501.34408171744 860.29164466022 503.55208171744 855.10764466022 C 505.76008171744 849.92364466022 508.94408171744 845.95564466022 513.10408171744 843.20364466022 C 517.26408171744 840.45164466022 522.19208171744 839.07564466022 527.88808171744 839.07564466022 C 533.58408171744 839.07564466022 538.51208171744 840.45164466022 542.67208171744 843.20364466022 C 546.83208171744 845.95564466022 550.01608171744 849.92364466022 552.22408171744 855.10764466022 C 554.43208171744 860.29164466022 555.53608171744 866.46764466022 555.53608171744 873.63564466022 C 555.53608171744 880.80364466022 554.43208171744 886.97964466022 552.22408171744 892.16364466022 C 550.01608171744 897.34764466022 546.83208171744 901.31564466022 542.67208171744 904.06764466022 C 538.51208171744 906.81964466022 533.58408171744 908.19564466022 527.88808171744 908.19564466022 C 522.19208171744 908.19564466022 517.26408171744 906.81964466022 513.10408171744 904.06764466022 Z M 543.00808171744 894.61164466022 C 546.56008171744 889.65164466022 548.33608171744 882.65964466022 548.33608171744 873.63564466022 C 548.33608171744 864.54764466022 546.56008171744 857.53964466022 543.00808171744 852.61164466022 C 539.45608171744 847.68364466022 534.41608171744 845.21964466022 527.88808171744 845.21964466022 C 521.36008171744 845.21964466022 516.32008171744 847.68364466022 512.76808171744 852.61164466022 C 509.21608171744 857.53964466022 507.44008171744 864.54764466022 507.44008171744 873.63564466022 C 507.44008171744 882.65964466022 509.21608171744 889.65164466022 512.76808171744 894.61164466022 C 516.32008171744 899.57164466022 521.36008171744 902.05164466022 527.88808171744 902.05164466022 C 534.41608171744 902.05164466022 539.45608171744 899.57164466022 543.00808171744 894.61164466022 Z M 578.19208171744 904.06764466022 C 574.03208171744 901.31564466022 570.84808171744 897.34764466022 568.64008171744 892.16364466022 C 566.43208171744 886.97964466022 565.32808171744 880.80364466022 565.32808171744 873.63564466022 C 565.32808171744 866.46764466022 566.43208171744 860.29164466022 568.64008171744 855.10764466022 C 570.84808171744 849.92364466022 574.03208171744 845.95564466022 578.19208171744 843.20364466022 C 582.35208171744 840.45164466022 587.28008171744 839.07564466022 592.97608171744 839.07564466022 C 598.67208171744 839.07564466022 603.60008171744 840.45164466022 607.76008171744 843.20364466022 C 611.92008171744 845.95564466022 615.10408171744 849.92364466022 617.31208171744 855.10764466022 C 619.52008171744 860.29164466022 620.62408171744 866.46764466022 620.62408171744 873.63564466022 C 620.62408171744 880.80364466022 619.52008171744 886.97964466022 617.31208171744 892.16364466022 C 615.10408171744 897.34764466022 611.92008171744 901.31564466022 607.76008171744 904.06764466022 C 603.60008171744 906.81964466022 598.67208171744 908.19564466022 592.97608171744 908.19564466022 C 587.28008171744 908.19564466022 582.35208171744 906.81964466022 578.19208171744 904.06764466022 Z M 608.09608171744 894.61164466022 C 611.64808171744 889.65164466022 613.42408171744 882.65964466022 613.42408171744 873.63564466022 C 613.42408171744 864.54764466022 611.64808171744 857.53964466022 608.09608171744 852.61164466022 C 604.54408171744 847.68364466022 599.50408171744 845.21964466022 592.97608171744 845.21964466022 C 586.44808171744 845.21964466022 581.40808171744 847.68364466022 577.85608171744 852.61164466022 C 574.30408171744 857.53964466022 572.52808171744 864.54764466022 572.52808171744 873.63564466022 C 572.52808171744 882.65964466022 574.30408171744 889.65164466022 577.85608171744 894.61164466022 C 581.40808171744 899.57164466022 586.44808171744 902.05164466022 592.97608171744 902.05164466022 C 599.50408171744 902.05164466022 604.54408171744 899.57164466022 608.09608171744 894.61164466022 Z M 637.52008171744 899.07564466022 C 632.65608171744 892.99564466022 630.22408171744 884.48364466022 630.22408171744 873.53964466022 C 630.22408171744 866.43564466022 631.34408171744 860.29164466022 633.58408171744 855.10764466022 C 635.82408171744 849.92364466022 639.07208171744 845.95564466022 643.32808171744 843.20364466022 C 647.58408171744 840.45164466022 652.62408171744 839.07564466022 658.44808171744 839.07564466022 C 667.15208171744 839.07564466022 674.48008171744 841.60364466022 680.43208171744 846.65964466022 C 681.20008171744 847.29964466022 681.58408171744 848.09964466022 681.58408171744 849.05964466022 C 681.58408171744 850.08364466022 681.13608171744 850.94764466022 680.24008171744 851.65164466022 C 679.72808171744 852.16364466022 679.08808171744 852.41964466022 678.32008171744 852.41964466022 C 677.36008171744 852.41964466022 676.36808171744 852.00364466022 675.34408171744 851.17164466022 C 672.59208171744 849.05964466022 669.95208171744 847.53964466022 667.42408171744 846.61164466022 C 664.89608171744 845.68364466022 661.90408171744 845.21964466022 658.44808171744 845.21964466022 C 651.60008171744 845.21964466022 646.36808171744 847.74764466022 642.75208171744 852.80364466022 C 639.13608171744 857.85964466022 637.32808171744 864.83564466022 637.32808171744 873.73164466022 L 637.52008171744 873.82764466022 C 639.63208171744 870.11564466022 642.46408171744 867.15564466022 646.01608171744 864.94764466022 C 649.56808171744 862.73964466022 653.77608171744 861.63564466022 658.64008171744 861.63564466022 C 663.82408171744 861.63564466022 668.25608171744 862.62764466022 671.93608171744 864.61164466022 C 675.61608171744 866.59564466022 678.41608171744 869.33164466022 680.33608171744 872.81964466022 C 682.25608171744 876.30764466022 683.21608171744 880.25964466022 683.21608171744 884.67564466022 C 683.21608171744 889.21964466022 682.20808171744 893.28364466022 680.19208171744 896.86764466022 C 678.17608171744 900.45164466022 675.28008171744 903.23564466022 671.50408171744 905.21964466022 C 667.72808171744 907.20364466022 663.28008171744 908.19564466022 658.16008171744 908.19564466022 C 649.26408171744 908.19564466022 642.38408171744 905.15564466022 637.52008171744 899.07564466022 Z M 671.16808171744 897.39564466022 C 674.40008171744 894.29164466022 676.01608171744 890.14764466022 676.01608171744 884.96364466022 C 676.01608171744 879.71564466022 674.40008171744 875.55564466022 671.16808171744 872.48364466022 C 667.93608171744 869.41164466022 663.60008171744 867.87564466022 658.16008171744 867.87564466022 C 654.76808171744 867.87564466022 651.63208171744 868.64364466022 648.75208171744 870.17964466022 C 645.87208171744 871.71564466022 643.58408171744 873.82764466022 641.88808171744 876.51564466022 C 640.19208171744 879.20364466022 639.34408171744 882.14764466022 639.34408171744 885.34764466022 C 639.34408171744 888.61164466022 640.17608171744 891.50764466022 641.84008171744 894.03564466022 C 643.50408171744 896.56364466022 645.77608171744 898.53164466022 648.65608171744 899.93964466022 C 651.53608171744 901.34764466022 654.70408171744 902.05164466022 658.16008171744 902.05164466022 C 663.60008171744 902.05164466022 667.93608171744 900.49964466022 671.16808171744 897.39564466022 Z"/></svg>